# xmcd
#
# Track frame offsets: 
#        150
#        17612
#        31190
#        40008
#        51183
#        67383
#        93297
#        107589
#        119492
#        144639
#        163046
#        176926
#        195006
#
# Disc length: 2740 seconds
#
# Revision: 0
# Processed by: cddbd v1.5.2PL0 Copyright (c) Steve Scherf et al.
# Submitted via: ExactAudioCopy v0.99pb3
#
DISCID=ad0ab20d
DTITLE=Redneck 28  - The South wiill Rise Again [CD]
DYEAR=2014
DGENRE=Redneck Country
TTITLE0=Outlaws
TTITLE1=Tree of Life [No Remorse cover]
TTITLE2=Move them Niggers North
TTITLE3=White Power [Skrewdriver cover]
TTITLE4=Put On Your Boots
TTITLE5=Betrayed
TTITLE6=Jew Jew Train
TTITLE7=Kiss My Arse
TTITLE8=My Country
TTITLE9=Carry My Brother
TTITLE10=Tomorrow Belongs to Us
TTITLE11=This is My Land
TTITLE12=Untitled
EXTD=
EXTT0=
EXTT1=
EXTT2=
EXTT3=
EXTT4=
EXTT5=
EXTT6=
EXTT7=
EXTT8=
EXTT9=
EXTT10=
EXTT11=
EXTT12=
PLAYORDER=
